<svg viewBox="0 0 144 144" xmlns="http://www.w3.org/2000/svg">
    <g>
        <path d="m106 30.8c-0.0813-0.0096-0.161-0.0096-0.236 0.0074-0.722 0.162-1.41 0.489-2.17 0.145-0.0727-0.0323-0.187-0.0202-0.265 0.0121-1.24 0.53-2.5 0.941-3.87 1.15-1.35 0.207-2.65 0.823-3.93 1.33-2.25 0.876-4.45 1.87-6.72 2.69-4.04 1.47-8.14 2.77-12.2 4.25-7.51 2.75-14.8 5.97-22.1 9.31-1.69 0.777-3.37 1.55-5.05 2.35-0.256 0.121-0.633 0.363-0.637 0.557-0.0096 0.397 0.684 0.76 1.08 0.645 0.279-0.0795 0.55-0.195 0.812-0.316 0.747-0.347 1.49-0.704 2.19-1.03 0.912 0.898 1.64-0.243 2.45-0.115-0.0781 0.18-0.153 0.353-0.284 0.652 0.745-0.148 1.42-0.167 2-0.414 4.31-1.84 8.59-3.73 12.9-5.58 2.37-1.02 4.74-2.01 7.14-2.94 6.54-2.55 13.1-5.02 19.7-7.63 1.9-0.765 4.01-1.16 5.64-2.57-0.0742-0.119-0.151-0.24-0.256-0.407 0.578-0.17 1.11-0.324 1.64-0.479 0.0769-0.0418 0.155-0.0822 0.233-0.124 0.921-0.351 1.84-0.699 2.76-1.05-8e-3 -0.0768-0.0149-0.155-0.0229-0.232-0.251-0.0556-0.516-0.178-0.76-0.207zm-3.8 5.76c-1.57 0.443-3.11 0.871-4.66 1.32-0.137 0.0404-0.247 0.179-0.367 0.274-0.192 0.153-0.36 0.385-0.579 0.453-6.99 2.18-13.9 4.68-20.7 7.37-5.52 2.18-11.1 4.43-16.5 6.68-1.54 0.629-3.06 1.33-4.57 1.99 0.251 0.473 0.461 0.866 0.634 1.19 15.5-5.94 30.8-12.1 46.6-17.2 0.0458-0.608 0.0903-1.22 0.151-2.02zm-24.7 44.1c-0.171-2.63-0.326-5.1-0.495-7.58-0.387-5.64-0.444-11.3-0.229-16.9 0.0904-2.38 0.262-4.75 0.371-7.12 0.0188-0.414 0.173-0.573 0.562-0.66 0.47-0.106 0.921-0.299 1.44-0.474-0.0163 0.349-0.0298 0.628-0.0432 0.907 0.0337 0.0064 0.066 0.0135 0.0997 0.0188 0.0822-0.372 0.163-0.744 0.246-1.12 0.0714 0.0085 0.142 0.0162 0.215 0.0242 0 0.626 0.0324 1.25-0.0065 1.88-0.0943 1.53-0.281 3.06-0.321 4.59-0.0834 3.21-0.112 6.42-0.133 9.63-0.0107 1.69 0.0096 3.39 0.0714 5.08 0.0512 1.39 0.188 2.79 0.277 4.18 0.125 1.97 0.237 3.92 0.363 5.89 0.0996 1.56 0.201 3.11 0.322 4.68 0.0216 0.272 0.145 0.536 0.222 0.803 0.0095 0.0323 0.0592 0.0727 0.0512 0.089-0.744 1.51-0.842 3.28-1.89 4.66-0.71 0.932-1.5 1.82-2.65 2.24-1.78 0.665-3.52 1.44-5.33 1.98-2.56 0.771-6.23-0.692-7.01-3.75-0.443-1.75 0.148-3.35 1.14-4.81 1.92-2.85 4.72-4.08 8.05-4.33 1.53-0.12 3.06-0.52 4.68 0.136zm0.983-17.8c0.0579 0.0011 0.116 0.0032 0.174 0.0043 0.161-4.57 0.321-9.14 0.481-13.7-0.0634-0.0032-0.128-0.0043-0.191-0.0064-0.155 4.57-0.31 9.15-0.463 13.7zm0.284 7.85c0.0512 0.0064 0.104 0.0148 0.155 0.0216-0.0714-2.47-0.142-4.92-0.215-7.39-0.05 0.0011-0.0983 0.0032-0.148 0.0043 0.0702 2.46 0.139 4.91 0.207 7.36zm25.2-38.5c-0.0781 0.0404-0.156 0.082-0.235 0.12-0.18 1.24-0.452 2.48-0.52 3.73-0.236 4.25-0.535 8.52-0.557 12.8-0.0241 4.67 0.213 9.33 0.377 14 0.0687 1.97 0.243 3.92 0.375 5.99-1.53-0.575-3.02-0.215-4.51-0.0997-3.32 0.256-6.13 1.42-8.08 4.27-0.927 1.35-1.54 2.83-1.27 4.46 0.467 2.85 3.31 4.59 6.22 4.29 1.33-0.139 2.66-0.62 3.9-1.13 1.54-0.63 3.15-1.13 4.33-2.52 1.01-1.19 1.55-2.52 1.99-3.95 0.135-0.439 0.332-0.881 0.356-1.33 0.0215-0.385-0.217-0.776-0.248-1.17-0.235-3.06-0.457-6.11-0.659-9.17-0.039-0.601 0.0605-1.21 0.0269-1.81-0.0741-1.33-0.229-2.67-0.286-4-0.0606-1.42-0.0715-2.86-0.0621-4.28 0.0229-3.35 0.0324-6.7 0.122-10 0.0567-2.07 0.213-4.15 0.401-6.22 0.097-1.07 0.357-2.14 0.563-3.31-0.656-0.171-1.45-0.378-2.23-0.585zm1.36 2.24c0.0404 0.0121 0.0795 0.0229 0.12 0.035-0.0904 0.907-0.18 1.82-0.269 2.72-0.0512-0.0043-0.102-0.0096-0.154-0.0148 0.101-0.913 0.202-1.83 0.303-2.74zm-0.454 3.24c0.0674 0.0011 0.134 0.0043 0.2 0.0053-0.167 4.55-0.336 9.11-0.504 13.7-0.043-0.0011-0.0876-0.0021-0.132-0.0043 0.146-4.56 0.291-9.11 0.437-13.7zm-0.206 15.5c0.0678 2.04 0.136 4.09 0.203 6.13-0.0674 0-0.136 0.0011-0.203 0.0021zm-53.2 38.7c-0.0634-1.08-0.0983-2.09-0.185-3.08-0.588-6.72-0.84-13.4-0.601-20.2 0.153-4.35 0.555-8.69 0.897-13 0.0862-1.08 0.233-1.12 1.29-0.837 0.452 0.121 0.897 0.264 1.34 0.402 0.0404 0.0121 0.0742 0.0485-0.0055-0.0053-0.191 1.17-0.454 2.27-0.538 3.38-0.198 2.65-0.373 5.3-0.443 7.95-0.0755 2.87-0.0215 5.75-0.0215 8.63 0 1.16-0.0256 2.32 0.0188 3.48 0.0579 1.49 0.183 2.99 0.266 4.48 0.139 2.5 0.24 5.01 0.411 7.51 0.117 1.71 0.324 3.42 0.493 5.12 0.0065 0.0687 0.0579 0.145 0.0404 0.202-0.206 0.674-0.453 1.34-0.629 2.02-0.311 1.2-0.81 2.29-1.71 3.19-2.3 2.32-5.25 3.26-8.32 3.71-2.69 0.389-5.57-1.35-6.11-4.18-0.324-1.7 0.298-3.21 1.25-4.59 1.88-2.74 4.59-3.98 7.81-4.24 1.55-0.128 3.1-0.538 4.75 0.0606zm0.979-18.1c0.0485 0.0011 0.0971 0.0032 0.147 0.0043 0.167-4.59 0.333-9.2 0.5-13.8-0.0674-0.0032-0.135-0.0043-0.201-0.0064-0.15 4.6-0.298 9.2-0.446 13.8zm0.334 3.04c-0.0808-0.0011-0.162-0.0032-0.242-0.0043 0.0674 1.64 0.136 3.27 0.203 4.9 0.0135-0.0011 0.0255-0.0043 0.039-0.0053v-4.89z" />
        <path d="m42.9 61.7c-4.02 0.0216-8.04 0.115-12 0.191-4.95 0.0957-9.92 0.189-14.9 0.323-0.601 0.0162-1.24 0.181-1.79 0.446-0.788 0.387-1.5 0.926-2.23 1.39 0.73 0.656 1.57 0.726 2.47 0.671 0.712-0.0444 1.44 0.0135 2.15-0.0011 4.11-0.0848 8.23-0.178 12.3-0.267 2.25-0.0485 4.51-0.142 6.77-0.136 3.81 0.0135 7.61 0.0902 11.4 0.138 0.332 0.0043 0.663 0 1.09 0 0-0.674-0.019-1.32 0.0055-1.96 0.0162-0.411-0.146-0.542-0.543-0.559-1.59-0.0701-3.18-0.249-4.77-0.241zm72.1 0.137c-1.41-0.0074-2.84 0.0132-4.25 0.0335-1.13 0.0162-2.24 0.0889-3.35 0.136v2.48c0.368 0 0.678 0.0043 0.991 0 4.39-0.0485 8.79-0.0807 13.2-0.153 1.88-0.0309 3.76 0.419 5.66 0.0173 1.68-0.354 3.38-0.57 5.07-0.846-2e-3 -0.0943-5e-3 -0.19-7e-3 -0.286-2.1-0.357-4.2-0.876-6.31-1.04-3.18-0.242-6.38-0.256-9.57-0.323-0.472-0.0106-0.944-0.0158-1.41-0.0184zm-14.4 0.34c-6.53 0.0727-13.1 0.145-19.6 0.216v2.58c6.59-0.0727 13.2-0.145 19.8-0.217 0-0.568 0.0164-1.06-6e-3 -1.54-0.0149-0.307-0.089-0.611-0.155-1.03zm-44.3 0.0437c-1.57 0.0032-1.58 0.317-1.31 2.49 6.45 0.155 12.9 0.311 19.3 0.469v-2.68c-1.64 0-3.22 0.0243-4.81-0.0043-4.17-0.0741-8.33-0.157-12.5-0.265-0.291-0.0074-0.547-0.0135-0.772-0.013zm-14.1 11.6c-7.95 0.0971-15.9-0.0296-23.8 0.882-2.53 0.291-5.1 0.233-7.65 0.311-1.05 0.0323-2.1 0.0053-3.16 0.0053-0.0364 0.0687-0.0728 0.137-0.111 0.205 0.157 0.116 0.301 0.296 0.476 0.336 0.787 0.18 1.61 0.242 2.37 0.486 1.72 0.551 3.49 0.779 5.28 0.748 1.3-0.0229 2.59-0.0433 3.89-0.05 1.88-0.0107 3.76 0.0256 5.63-0.0216 2.37-0.0593 4.73-0.227 7.1-0.271 2.84-0.0512 5.68-0.0335 8.52-0.0187 2.15 0.0121 4.29 0.0673 6.44 0.102 0.213 0.0032 0.426 0 0.614 0v-2.45c-0.132-0.0337-0.237-0.081-0.344-0.085-1.74-0.0687-3.5-0.203-5.24-0.182zm77.1 0.589c-2.17 0.0011-4.34 0.0682-6.51 0.0905-1.35 0.0135-2.7 0.0043-4.04 0.0579-0.296 0.0107-0.791 0.226-0.821 0.38-0.135 0.702-0.133 1.41-0.181 2.12 0.961 0 1.91 0.0106 2.86-0.0032 5.67-0.0795 11.4-0.152 17-0.257 1.18-0.0216 2.36-0.269 3.53-0.243 4.33 0.0929 8.49-0.705 12.8-0.997 0.0555-0.0043 0.105-0.0592 0.156-0.0915-0.01-0.0674-0.0198-0.133-0.0298-0.201-2.47 0-4.94 0.0405-7.41-0.0135-1.98-0.0432-3.94-0.202-5.91-0.313-3.08-0.174-6.16-0.423-9.24-0.502-0.721-0.0182-1.45-0.0249-2.17-0.0244zm-64.2-0.104c-0.188-0.0032-0.53 0.242-0.544 0.394-0.0593 0.68-0.0257 1.37-0.0257 2.09 6.8 0.159 13.5 0.317 20.3 0.474v-2.55c-0.536-0.0242-0.981-0.0524-1.42-0.0605-4.05-0.0755-8.11-0.141-12.1-0.221-2.04-0.0391-4.07-0.111-6.11-0.132zm32 0.0579c-1.9 0.0755-3.76 0.151-5.67 0.226v2.4h5.11c0.19-0.923 0.364-1.76 0.543-2.64zm-42.7 11.5c-3.54-0.0064-7.09 0.0187-10.6 0.0847-6.39 0.119-12.8 0.279-19.1 0.417-1.39 0.031-2.79-0.0685-4.17 0.0824-2.21 0.242-4.41 0.644-6.62 0.978-0.00554 0.0714-0.0106 0.141-0.0148 0.215 0.354 0.0781 0.707 0.163 1.06 0.233 0.961 0.19 1.92 0.372 2.88 0.562 0.349 0.0687 0.691 0.203 1.04 0.223 1.48 0.0862 2.96 0.201 4.43 0.196 4.41-0.0162 8.82-0.0634 13.2-0.142 1.99-0.0364 3.97-0.221 5.94-0.258 2.13-0.0418 4.24 0.0176 6.37 0.0189 2.23 0 4.46-0.0352 6.71-0.015 0.999 0.0085 2 0.116 3.1 0.185-0.0687-0.901-0.13-1.71-0.192-2.54-1.38-0.0876-2.67-0.236-3.97-0.238zm82.8 0.0172c-2.41-0.0053-4.82 0.0488-7.23 0.0589-2.29 0.0096-4.57-0.0285-6.87 0.0294-3.04 0.0781-6.07 0.27-9.1 0.334-2.16 0.0458-4.33-0.0769-6.48-0.054-4.14 0.0444-8.28 0.137-12.4 0.216-0.528 0.0107-1.06 0.0458-1.52 0.066-0.281 0.856-0.539 1.64-0.779 2.37 3.02 0 6.09 0.0392 9.15-0.0064 8.37-0.127 16.7-0.317 25.1-0.427 4.66-0.062 9.32-0.119 13.9 0.0242 3.32 0.102 6.62 0.355 9.93 0.106 0.159-0.0121 0.314-0.109 0.47-0.167-0.12-0.146-0.208-0.358-0.366-0.42-0.425-0.165-0.899-0.223-1.32-0.397-3.22-1.33-6.67-1.63-10.1-1.7-0.803-0.0188-1.61-0.0274-2.4-0.0292zm-72 0.554v2.43h6.08c0.202-0.77 0.409-1.55 0.64-2.43zm-20.3 11.5c-0.368-0.0021-0.734-0.0011-1.09 0.0064-5.38 0.124-10.7 0.242-16.2 0.385-3.11 0.0836-6.23 0.182-9.34 0.322-2.57 0.117-5.15 0.304-7.72 0.462-0.17 0.0107-0.34 0.0271-0.494 0.0392-0.0848 0.487 0.119 0.635 0.543 0.672 1.24 0.112 2.49 0.268 3.74 0.392 2.16 0.216 4.32 0.556 6.48 0.602 4.29 0.0916 8.6 0.0635 12.9-3e-3 3.15-0.0485 6.29-0.242 9.44-0.362 0.641-0.0242 1.29-4e-3 1.81-4e-3 0.359-0.901 0.671-1.68 1-2.51-0.375 0-0.746-0.0032-1.12-0.0053zm87.3 0.0724c-0.992 0-1.99 0.0151-2.98 0.0205-3.4 0.0189-6.8 0.0362-10.2 0.107-2.04 0.0432-4.07 0.232-6.11 0.276-2.02 0.0444-4.05-0.0404-6.07-0.0148-4.37 0.0539-8.73 0.164-13.1 0.21-4.25 0.0458-8.49 0.0836-12.8 0.0444-4.59-0.0418-9.18-0.178-13.8-0.262-0.172-0.0043-0.45 0.0646-0.506 0.183-0.339 0.714-0.628 1.46-0.959 2.24 0.275 0.0323 0.406 0.0578 0.536 0.0606 5.06 0.13 10.1 0.321 15.2 0.366 4.45 0.0391 8.92-0.0688 13.4-0.142 7.82-0.131 15.6-0.287 23.5-0.427 3.25-0.0593 6.51-0.12 9.77-0.15 2.36-0.0216 4.75-0.195 7.09 0.0592 3.34 0.361 6.61-0.0942 9.91-0.423 0.091-0.988 0.0723-0.901-0.838-1.09-3-0.636-6.05-0.83-9.09-0.992-0.99-0.0525-1.98-0.0666-2.98-0.0663zm-82.2 11.9c-6.36 0.0242-12.8 0.241-19 0.38-0.183 4e-3 -0.365 0.0485-0.546 0.0808-0.728 0.133-1.46 0.369-2.19 0.387-3.58 0.0836-7.18 0.107-10.7 0.156-0.159 1e-3 -0.317 0.027-0.66 0.0566 0.233 0.258 0.351 0.52 0.53 0.57 0.891 0.247 1.79 0.509 2.7 0.63 1.53 0.202 3.07 0.307 4.6 0.438 1.07 0.0902 2.14 0.18 3.21 0.223 0.766 0.0323 1.54-0.0159 2.31-0.02 2.3-0.0107 4.58 0.0148 6.88-0.0323 4.29-0.0903 8.59-0.236 12.9-0.328 1.99-0.0444 3.98-0.0713 5.96-0.0148 3.07 0.0876 6.13 0.323 9.21 0.374 9.43 0.156 18.8 0.624 28.3 0.372 10.2-0.273 20.4-0.372 30.7-0.578 7.12-0.142 14.2 0.0444 21.4-0.155 0.877-0.0242 1.75-0.181 2.72-0.286-1.05-0.987-2.22-1.08-3.43-1.13-1.69-0.0593-3.38-0.124-5.05-0.299-1.72-0.18-3.41-0.617-5.13-0.72-1.88-0.113-3.78 0.0325-5.68 0.0608-3.18 0.0485-6.36 0.0727-9.54 0.147-2.64 0.0606-5.27 0.222-7.91 0.26-4.4 0.0634-8.8 0.0524-13.2 0.0969-3.35 0.0337-6.7 0.168-10 0.147-5.02-0.0323-10-0.161-15.1-0.251-3.49-0.0634-6.98-0.107-10.5-0.201-4.21-0.112-8.43-0.389-12.7-0.373z" />
    </g>
</svg>