<?xml version="1.0" encoding="UTF-8" standalone="no"?>
<!DOCTYPE svg PUBLIC "-//W3C//DTD SVG 1.1//EN" "http://www.w3.org/Graphics/SVG/1.1/DTD/svg11.dtd">
<svg width="100%" height="100%" viewBox="0 0 4 4" version="1.1" xmlns="http://www.w3.org/2000/svg" xmlns:xlink="http://www.w3.org/1999/xlink" xml:space="preserve" xmlns:serif="http://www.serif.com/" style="fill-rule:evenodd;clip-rule:evenodd;stroke-linejoin:round;stroke-miterlimit:2;">
    <g transform="matrix(0.64,0,0,0.64,0,0)">
        <g transform="matrix(1,0,0,1,0.35,0.1)">
            <path d="M4.7,0.001C4.694,0.001 4.689,0.001 4.683,0.002C4.632,0.013 4.584,0.036 4.533,0.012C4.528,0.01 4.52,0.011 4.514,0.013C4.427,0.05 4.334,0.079 4.244,0.093C4.149,0.107 4.054,0.151 3.964,0.186C3.804,0.247 3.654,0.316 3.494,0.376C3.214,0.476 2.924,0.566 2.644,0.676C2.114,0.866 1.644,1.096 1.144,1.326C1.024,1.38 0.904,1.436 0.794,1.486C0.776,1.494 0.75,1.511 0.749,1.525C0.748,1.553 0.797,1.578 0.825,1.57C0.845,1.564 0.863,1.556 0.882,1.548C0.934,1.524 0.982,1.499 1.032,1.476C1.096,1.539 1.142,1.459 1.202,1.468C1.196,1.481 1.191,1.493 1.182,1.514C1.234,1.504 1.281,1.502 1.322,1.485L2.222,1.095C2.392,1.024 2.552,0.955 2.722,0.885C3.182,0.705 3.642,0.535 4.122,0.355C4.252,0.301 4.402,0.274 4.512,0.175C4.507,0.166 4.501,0.158 4.494,0.147C4.534,0.135 4.572,0.124 4.604,0.113C4.609,0.11 4.615,0.107 4.62,0.104C4.684,0.079 4.75,0.055 4.81,0.03C4.809,0.025 4.809,0.019 4.808,0.014C4.79,0.01 4.772,0.002 4.755,-0L4.7,0.001ZM4.43,0.401C4.32,0.432 4.21,0.462 4.1,0.493C4.09,0.496 4.083,0.506 4.074,0.512C4.061,0.523 4.049,0.539 4.033,0.544C3.543,0.694 3.063,0.874 2.633,1.064C2.243,1.214 1.853,1.374 1.433,1.534C1.323,1.578 1.223,1.627 1.113,1.674C1.131,1.707 1.145,1.735 1.157,1.757C2.257,1.337 3.357,0.907 4.457,0.557C4.46,0.514 4.463,0.472 4.468,0.417L4.43,0.401ZM2.73,3.501C2.718,3.321 2.707,3.141 2.695,2.971C2.668,2.581 2.664,2.181 2.679,1.771C2.685,1.601 2.697,1.441 2.705,1.271C2.706,1.242 2.717,1.231 2.744,1.225C2.777,1.218 2.808,1.204 2.844,1.192C2.843,1.216 2.842,1.236 2.841,1.255C2.843,1.256 2.846,1.256 2.848,1.257C2.854,1.231 2.859,1.205 2.865,1.179C2.87,1.179 2.875,1.18 2.88,1.18C2.88,1.224 2.882,1.268 2.88,1.31C2.873,1.42 2.86,1.52 2.858,1.63C2.852,1.85 2.85,2.08 2.848,2.3C2.847,2.42 2.849,2.54 2.853,2.66C2.857,2.757 2.866,2.86 2.872,2.95C2.881,3.09 2.889,3.22 2.897,3.36C2.904,3.47 2.911,3.58 2.92,3.69C2.922,3.709 2.93,3.728 2.936,3.746C2.937,3.749 2.94,3.752 2.94,3.753C2.888,3.863 2.881,3.983 2.81,4.083C2.76,4.148 2.7,4.213 2.62,4.243C2.5,4.29 2.37,4.343 2.25,4.383C2.07,4.437 1.81,4.335 1.76,4.123C1.729,4.003 1.77,3.893 1.84,3.783C1.97,3.583 2.17,3.493 2.4,3.483C2.51,3.474 2.61,3.447 2.73,3.492L2.73,3.501ZM2.799,2.301C2.803,2.301 2.807,2.302 2.811,2.302C2.822,1.982 2.833,1.662 2.845,1.342C2.841,1.341 2.836,1.341 2.832,1.341C2.821,1.661 2.81,1.981 2.8,2.301L2.799,2.301ZM2.819,2.851C2.823,2.852 2.826,2.852 2.83,2.853C2.825,2.683 2.82,2.513 2.815,2.333C2.811,2.333 2.808,2.333 2.805,2.333C2.81,2.503 2.815,2.673 2.819,2.853L2.819,2.851ZM4.619,0.151C4.614,0.154 4.608,0.157 4.603,0.16C4.59,0.247 4.571,0.33 4.567,0.42C4.55,0.72 4.53,1.02 4.528,1.32C4.526,1.65 4.543,1.97 4.554,2.3C4.559,2.44 4.571,2.57 4.58,2.72C4.47,2.68 4.37,2.705 4.26,2.713C4.03,2.731 3.83,2.812 3.69,3.013C3.625,3.108 3.58,3.213 3.601,3.323C3.634,3.523 3.831,3.643 4.041,3.623C4.134,3.613 4.231,3.58 4.311,3.544C4.421,3.5 4.531,3.465 4.611,3.364C4.682,3.281 4.721,3.184 4.751,3.084C4.76,3.053 4.774,3.022 4.776,2.991C4.778,2.964 4.761,2.937 4.759,2.909C4.743,2.699 4.727,2.479 4.713,2.269C4.71,2.227 4.717,2.184 4.715,2.139C4.71,2.046 4.699,1.949 4.695,1.859C4.691,1.76 4.69,1.659 4.691,1.559C4.692,1.329 4.693,1.089 4.699,0.859C4.703,0.719 4.714,0.569 4.727,0.419C4.734,0.344 4.752,0.269 4.766,0.189C4.72,0.177 4.666,0.163 4.606,0.148L4.619,0.151ZM4.714,0.311C4.717,0.312 4.72,0.313 4.722,0.314L4.703,0.504C4.7,0.504 4.696,0.503 4.692,0.503C4.699,0.439 4.706,0.373 4.713,0.313L4.714,0.311ZM4.682,0.541C4.687,0.541 4.691,0.542 4.696,0.542C4.684,0.862 4.672,1.182 4.661,1.502C4.658,1.502 4.655,1.502 4.652,1.501C4.662,1.181 4.672,0.861 4.683,0.541L4.682,0.541ZM4.668,1.641C4.673,1.781 4.677,1.931 4.682,2.071C4.677,2.071 4.672,2.071 4.668,2.072L4.668,1.641ZM0.968,4.341C0.964,4.265 0.961,4.191 0.955,4.121C0.914,3.651 0.896,3.181 0.913,2.721C0.924,2.421 0.952,2.111 0.976,1.811C0.982,1.735 0.992,1.733 1.066,1.752C1.098,1.761 1.129,1.77 1.16,1.78C1.163,1.781 1.165,1.784 1.16,1.78C1.147,1.862 1.128,1.94 1.122,2.02C1.108,2.21 1.096,2.39 1.091,2.58C1.085,2.78 1.089,2.98 1.089,3.18C1.089,3.261 1.087,3.34 1.09,3.42C1.095,3.52 1.103,3.63 1.109,3.73C1.119,3.91 1.126,4.08 1.138,4.26C1.147,4.38 1.161,4.5 1.173,4.62C1.174,4.625 1.178,4.63 1.176,4.634C1.162,4.681 1.144,4.728 1.132,4.774C1.11,4.858 1.075,4.934 1.012,4.994C0.852,5.154 0.642,5.224 0.432,5.254C0.242,5.281 0.042,5.159 0.002,4.964C-0.021,4.844 0.023,4.744 0.09,4.644C0.22,4.454 0.41,4.364 0.64,4.344C0.75,4.335 0.86,4.306 0.97,4.348L0.968,4.341ZM1.037,3.041C1.04,3.041 1.044,3.042 1.047,3.042C1.059,2.722 1.07,2.402 1.082,2.072C1.077,2.071 1.073,2.071 1.068,2.071C1.058,2.391 1.047,2.711 1.037,3.041L1.037,3.041ZM1.06,3.251C1.054,3.251 1.049,3.251 1.043,3.251C1.048,3.361 1.052,3.481 1.057,3.591C1.058,3.591 1.059,3.591 1.06,3.591L1.06,3.251L1.06,3.251Z" style="fill:rgb(185,126,0);fill-rule:nonzero;"/>
        </g>
    </g>
</svg>
