<svg width="144" height="84" version="1.1" viewBox="0 0 144 84" xmlns="http://www.w3.org/2000/svg">
    <path d="m105 0.0065c-0.081-0.0096-0.16-0.0096-0.24 0.0074-0.72 0.16-1.4 0.49-2.2 0.14-0.073-0.032-0.19-0.02-0.26 0.012-1.2 0.53-2.5 0.94-3.9 1.2-1.4 0.21-2.6 0.82-3.9 1.3-2.2 0.88-4.4 1.9-6.7 2.7-4 1.5-8.1 2.8-12 4.2-7.5 2.8-15 6-22 9.3-1.7 0.78-3.4 1.6-5 2.4-0.26 0.12-0.63 0.36-0.64 0.56-0.0096 0.4 0.68 0.76 1.1 0.64 0.28-0.08 0.55-0.2 0.81-0.32 0.75-0.35 1.5-0.7 2.2-1 0.91 0.9 1.6-0.24 2.4-0.12-0.078 0.18-0.15 0.35-0.28 0.65 0.74-0.15 1.4-0.17 2-0.41 4.3-1.8 8.6-3.7 13-5.6 2.4-1 4.7-2 7.1-2.9 6.5-2.6 13-5 20-7.6 1.9-0.76 4-1.2 5.6-2.6-0.074-0.12-0.15-0.24-0.26-0.41 0.58-0.17 1.1-0.32 1.6-0.48 0.077-0.042 0.16-0.082 0.23-0.12 0.92-0.35 1.8-0.7 2.8-1-8e-3 -0.077-0.015-0.16-0.023-0.23-0.25-0.056-0.52-0.18-0.76-0.21zm-3.8 5.8c-1.6 0.44-3.1 0.87-4.7 1.3-0.14 0.04-0.25 0.18-0.37 0.27-0.19 0.15-0.36 0.38-0.58 0.45-7 2.2-14 4.7-21 7.4-5.5 2.2-11 4.4-16 6.7-1.5 0.63-3.1 1.3-4.6 2 0.25 0.47 0.46 0.87 0.63 1.2 16-5.9 31-12 47-17 0.046-0.61 0.09-1.2 0.15-2zm-25 44c-0.17-2.6-0.33-5.1-0.5-7.6-0.39-5.6-0.44-11-0.23-17 0.09-2.4 0.26-4.8 0.37-7.1 0.019-0.41 0.17-0.57 0.56-0.66 0.47-0.11 0.92-0.3 1.4-0.47-0.016 0.35-0.03 0.63-0.043 0.91 0.034 0.0064 0.066 0.014 0.1 0.019 0.082-0.37 0.16-0.74 0.25-1.1 0.071 0.0085 0.14 0.016 0.22 0.024 0 0.63 0.032 1.2-0.0065 1.9-0.094 1.5-0.28 3.1-0.32 4.6-0.083 3.2-0.11 6.4-0.13 9.6-0.011 1.7 0.0096 3.4 0.071 5.1 0.051 1.4 0.19 2.8 0.28 4.2 0.12 2 0.24 3.9 0.36 5.9 0.1 1.6 0.2 3.1 0.32 4.7 0.022 0.27 0.14 0.54 0.22 0.8 0.0095 0.032 0.059 0.073 0.051 0.089-0.74 1.5-0.84 3.3-1.9 4.7-0.71 0.93-1.5 1.8-2.6 2.2-1.8 0.66-3.5 1.4-5.3 2-2.6 0.77-6.2-0.69-7-3.8-0.44-1.8 0.15-3.4 1.1-4.8 1.9-2.8 4.7-4.1 8-4.3 1.5-0.12 3.1-0.52 4.7 0.14zm0.98-18c0.058 0.0011 0.12 0.0032 0.17 0.0043 0.16-4.6 0.32-9.1 0.48-14-0.063-0.0032-0.13-0.0043-0.19-0.0064-0.16 4.6-0.31 9.2-0.46 14zm0.28 7.8c0.051 0.0064 0.1 0.015 0.16 0.022-0.071-2.5-0.14-4.9-0.22-7.4-0.05 0.0011-0.098 0.0032-0.15 0.0043 0.07 2.5 0.14 4.9 0.21 7.4zm25-38c-0.078 0.04-0.16 0.082-0.24 0.12-0.18 1.2-0.45 2.5-0.52 3.7-0.24 4.2-0.54 8.5-0.56 13-0.024 4.7 0.21 9.3 0.38 14 0.069 2 0.24 3.9 0.38 6-1.5-0.58-3-0.22-4.5-0.1-3.3 0.26-6.1 1.4-8.1 4.3-0.93 1.4-1.5 2.8-1.3 4.5 0.47 2.8 3.3 4.6 6.2 4.3 1.3-0.14 2.7-0.62 3.9-1.1 1.5-0.63 3.2-1.1 4.3-2.5 1-1.2 1.6-2.5 2-4 0.14-0.44 0.33-0.88 0.36-1.3 0.022-0.38-0.22-0.78-0.25-1.2-0.24-3.1-0.46-6.1-0.66-9.2-0.039-0.6 0.06-1.2 0.027-1.8-0.074-1.3-0.23-2.7-0.29-4-0.061-1.4-0.072-2.9-0.062-4.3 0.023-3.4 0.032-6.7 0.12-10 0.057-2.1 0.21-4.2 0.4-6.2 0.097-1.1 0.36-2.1 0.56-3.3-0.66-0.17-1.4-0.38-2.2-0.58zm1.4 2.2c0.04 0.012 0.08 0.023 0.12 0.035-0.09 0.91-0.18 1.8-0.27 2.7-0.051-0.0043-0.1-0.0096-0.15-0.015 0.1-0.91 0.2-1.8 0.3-2.7zm-0.45 3.2c0.067 0.0011 0.13 0.0043 0.2 0.0053-0.17 4.6-0.34 9.1-0.5 14-0.043-0.0011-0.088-0.0021-0.13-0.0043 0.15-4.6 0.29-9.1 0.44-14zm-0.21 16c0.068 2 0.14 4.1 0.2 6.1-0.067 0-0.14 0.0011-0.2 0.0021zm-53 39c-0.063-1.1-0.098-2.1-0.18-3.1-0.59-6.7-0.84-13-0.6-20 0.15-4.4 0.56-8.7 0.9-13 0.086-1.1 0.23-1.1 1.3-0.84 0.45 0.12 0.9 0.26 1.3 0.4 0.04 0.012 0.074 0.048-0.0055-0.0053-0.19 1.2-0.45 2.3-0.54 3.4-0.2 2.6-0.37 5.3-0.44 8-0.076 2.9-0.022 5.8-0.022 8.6 0 1.2-0.026 2.3 0.019 3.5 0.058 1.5 0.18 3 0.27 4.5 0.14 2.5 0.24 5 0.41 7.5 0.12 1.7 0.32 3.4 0.49 5.1 0.0065 0.069 0.058 0.14 0.04 0.2-0.21 0.67-0.45 1.3-0.63 2-0.31 1.2-0.81 2.3-1.7 3.2-2.3 2.3-5.2 3.3-8.3 3.7-2.7 0.39-5.6-1.4-6.1-4.2-0.32-1.7 0.3-3.2 1.2-4.6 1.9-2.7 4.6-4 7.8-4.2 1.6-0.13 3.1-0.54 4.8 0.061zm0.98-18c0.048 0.0011 0.097 0.0032 0.15 0.0043 0.17-4.6 0.33-9.2 0.5-14-0.067-0.0032-0.14-0.0043-0.2-0.0064-0.15 4.6-0.3 9.2-0.45 14zm0.33 3c-0.081-0.0011-0.16-0.0032-0.24-0.0043 0.067 1.6 0.14 3.3 0.2 4.9 0.014-0.0011 0.026-0.0043 0.039-0.0053v-4.9z" />
    <path d="m42 31c-4 0.022-8 0.12-12 0.19-5 0.096-9.9 0.19-15 0.32-0.6 0.016-1.2 0.18-1.8 0.45-0.79 0.39-1.5 0.93-2.2 1.4 0.73 0.66 1.6 0.73 2.5 0.67 0.71-0.044 1.4 0.014 2.2-0.0011 4.1-0.085 8.2-0.18 12-0.27 2.2-0.048 4.5-0.14 6.8-0.14 3.8 0.014 7.6 0.09 11 0.14 0.33 0.0043 0.66 0 1.1 0 0-0.67-0.019-1.3 0.0055-2 0.016-0.41-0.15-0.54-0.54-0.56-1.6-0.07-3.2-0.25-4.8-0.24zm72 0.14c-1.4-0.0074-2.8 0.013-4.2 0.034-1.1 0.016-2.2 0.089-3.4 0.14v2.5c0.37 0 0.68 0.0043 0.99 0 4.4-0.048 8.8-0.081 13-0.15 1.9-0.031 3.8 0.42 5.7 0.017 1.7-0.35 3.4-0.57 5.1-0.85-2e-3 -0.094-5e-3 -0.19-7e-3 -0.29-2.1-0.36-4.2-0.88-6.3-1-3.2-0.24-6.4-0.26-9.6-0.32-0.47-0.011-0.94-0.016-1.4-0.018zm-14 0.34c-6.5 0.073-13 0.14-20 0.22v2.6c6.6-0.073 13-0.14 20-0.22 0-0.57 0.016-1.1-6e-3 -1.5-0.015-0.31-0.089-0.61-0.16-1zm-44 0.044c-1.6 0.0032-1.6 0.32-1.3 2.5 6.4 0.16 13 0.31 19 0.47v-2.7c-1.6 0-3.2 0.024-4.8-0.0043-4.2-0.074-8.3-0.16-12-0.26-0.29-0.0074-0.55-0.014-0.77-0.013zm-14 12c-8 0.097-16-0.03-24 0.88-2.5 0.29-5.1 0.23-7.6 0.31-1 0.032-2.1 0.0053-3.2 0.0053-0.036 0.069-0.073 0.14-0.11 0.2 0.16 0.12 0.3 0.3 0.48 0.34 0.79 0.18 1.6 0.24 2.4 0.49 1.7 0.55 3.5 0.78 5.3 0.75 1.3-0.023 2.6-0.043 3.9-0.05 1.9-0.011 3.8 0.026 5.6-0.022 2.4-0.059 4.7-0.23 7.1-0.27 2.8-0.051 5.7-0.034 8.5-0.019 2.2 0.012 4.3 0.067 6.4 0.1 0.21 0.0032 0.43 0 0.61 0v-2.4c-0.13-0.034-0.24-0.081-0.34-0.085-1.7-0.069-3.5-0.2-5.2-0.18zm77 0.59c-2.2 0.0011-4.3 0.068-6.5 0.09-1.4 0.014-2.7 0.0043-4 0.058-0.3 0.011-0.79 0.23-0.82 0.38-0.14 0.7-0.13 1.4-0.18 2.1 0.96 0 1.9 0.011 2.9-0.0032 5.7-0.08 11-0.15 17-0.26 1.2-0.022 2.4-0.27 3.5-0.24 4.3 0.093 8.5-0.7 13-1 0.056-0.0043 0.1-0.059 0.16-0.092-0.01-0.067-0.02-0.13-0.03-0.2-2.5 0-4.9 0.04-7.4-0.014-2-0.043-3.9-0.2-5.9-0.31-3.1-0.17-6.2-0.42-9.2-0.5-0.72-0.018-1.4-0.025-2.2-0.024zm-64-0.1c-0.19-0.0032-0.53 0.24-0.54 0.39-0.059 0.68-0.026 1.4-0.026 2.1 6.8 0.16 14 0.32 20 0.47v-2.6c-0.54-0.024-0.98-0.052-1.4-0.06-4-0.076-8.1-0.14-12-0.22-2-0.039-4.1-0.11-6.1-0.13zm32 0.058c-1.9 0.076-3.8 0.15-5.7 0.23v2.4h5.1c0.19-0.92 0.36-1.8 0.54-2.6zm-43 12c-3.5-0.0064-7.1 0.019-11 0.085-6.4 0.12-13 0.28-19 0.42-1.4 0.031-2.8-0.068-4.2 0.082-2.2 0.24-4.4 0.64-6.6 0.98-0.0055 0.071-0.011 0.14-0.015 0.22 0.35 0.078 0.71 0.16 1.1 0.23 0.96 0.19 1.9 0.37 2.9 0.56 0.35 0.069 0.69 0.2 1 0.22 1.5 0.086 3 0.2 4.4 0.2 4.4-0.016 8.8-0.063 13-0.14 2-0.036 4-0.22 5.9-0.26 2.1-0.042 4.2 0.018 6.4 0.019 2.2 0 4.5-0.035 6.7-0.015 1 0.0085 2 0.12 3.1 0.18-0.069-0.9-0.13-1.7-0.19-2.5-1.4-0.088-2.7-0.24-4-0.24zm83 0.017c-2.4-0.0053-4.8 0.049-7.2 0.059-2.3 0.0096-4.6-0.028-6.9 0.029-3 0.078-6.1 0.27-9.1 0.33-2.2 0.046-4.3-0.077-6.5-0.054-4.1 0.044-8.3 0.14-12 0.22-0.53 0.011-1.1 0.046-1.5 0.066-0.28 0.86-0.54 1.6-0.78 2.4 3 0 6.1 0.039 9.2-0.0064 8.4-0.13 17-0.32 25-0.43 4.7-0.062 9.3-0.12 14 0.024 3.3 0.1 6.6 0.36 9.9 0.11 0.16-0.012 0.31-0.11 0.47-0.17-0.12-0.15-0.21-0.36-0.37-0.42-0.42-0.16-0.9-0.22-1.3-0.4-3.2-1.3-6.7-1.6-10-1.7-0.8-0.019-1.6-0.027-2.4-0.029zm-72 0.55v2.4h6.1c0.2-0.77 0.41-1.6 0.64-2.4zm-20 12c-0.37-0.0021-0.73-0.0011-1.1 0.0064-5.4 0.12-11 0.24-16 0.38-3.1 0.084-6.2 0.18-9.3 0.32-2.6 0.12-5.2 0.3-7.7 0.46-0.17 0.011-0.34 0.027-0.49 0.039-0.085 0.49 0.12 0.64 0.54 0.67 1.2 0.11 2.5 0.27 3.7 0.39 2.2 0.22 4.3 0.56 6.5 0.6 4.3 0.092 8.6 0.064 13-3e-3 3.2-0.048 6.3-0.24 9.4-0.36 0.64-0.024 1.3-4e-3 1.8-4e-3 0.36-0.9 0.67-1.7 1-2.5-0.38 0-0.75-0.0032-1.1-0.0053zm87 0.072c-0.99 0-2 0.015-3 0.02-3.4 0.019-6.8 0.036-10 0.11-2 0.043-4.1 0.23-6.1 0.28-2 0.044-4-0.04-6.1-0.015-4.4 0.054-8.7 0.16-13 0.21-4.2 0.046-8.5 0.084-13 0.044-4.6-0.042-9.2-0.18-14-0.26-0.17-0.0043-0.45 0.065-0.51 0.18-0.34 0.71-0.63 1.5-0.96 2.2 0.28 0.032 0.41 0.058 0.54 0.061 5.1 0.13 10 0.32 15 0.37 4.4 0.039 8.9-0.069 13-0.14 7.8-0.13 16-0.29 24-0.43 3.2-0.059 6.5-0.12 9.8-0.15 2.4-0.022 4.8-0.2 7.1 0.059 3.3 0.36 6.6-0.094 9.9-0.42 0.091-0.99 0.072-0.9-0.84-1.1-3-0.64-6-0.83-9.1-0.99-0.99-0.052-2-0.067-3-0.066zm-82 12c-6.4 0.024-13 0.24-19 0.38-0.18 4e-3 -0.36 0.048-0.55 0.081-0.73 0.13-1.5 0.37-2.2 0.39-3.6 0.084-7.2 0.11-11 0.16-0.16 1e-3 -0.32 0.027-0.66 0.057 0.23 0.26 0.35 0.52 0.53 0.57 0.89 0.25 1.8 0.51 2.7 0.63 1.5 0.2 3.1 0.31 4.6 0.44 1.1 0.09 2.1 0.18 3.2 0.22 0.77 0.032 1.5-0.016 2.3-0.02 2.3-0.011 4.6 0.015 6.9-0.032 4.3-0.09 8.6-0.24 13-0.33 2-0.044 4-0.071 6-0.015 3.1 0.088 6.1 0.32 9.2 0.37 9.4 0.16 19 0.62 28 0.37 10-0.27 20-0.37 31-0.58 7.1-0.14 14 0.044 21-0.16 0.88-0.024 1.8-0.18 2.7-0.29-1-0.99-2.2-1.1-3.4-1.1-1.7-0.059-3.4-0.12-5-0.3-1.7-0.18-3.4-0.62-5.1-0.72-1.9-0.11-3.8 0.032-5.7 0.061-3.2 0.048-6.4 0.073-9.5 0.15-2.6 0.061-5.3 0.22-7.9 0.26-4.4 0.063-8.8 0.052-13 0.097-3.4 0.034-6.7 0.17-10 0.15-5-0.032-10-0.16-15-0.25-3.5-0.063-7-0.11-10-0.2-4.2-0.11-8.4-0.39-13-0.37z" />
</svg>