<svg width="4.8" height="5.3" version="1.1" viewBox="0 0 4.8 5.3" xmlns="http://www.w3.org/2000/svg">
    <style>
    path {
        fill: black;
    }

    @media (prefers-color-scheme: dark) {
        path {
            fill: black;
        }
    }
    </style>
    <path d="m4.7 0.0014c-0.0057-6.7e-4 -0.011-6.7e-4 -0.017 5.2e-4 -0.051 0.011-0.099 0.034-0.15 0.01-0.0051-0.0023-0.013-0.0014-0.019 8.5e-4 -0.087 0.037-0.18 0.066-0.27 0.08-0.095 0.014-0.19 0.058-0.28 0.093-0.16 0.061-0.31 0.13-0.47 0.19-0.28 0.1-0.57 0.19-0.85 0.3-0.53 0.19-1 0.42-1.5 0.65-0.12 0.054-0.24 0.11-0.35 0.16-0.018 0.0085-0.044 0.025-0.045 0.039-6.7e-4 0.028 0.048 0.053 0.076 0.045 0.02-0.0056 0.038-0.014 0.057-0.022 0.052-0.024 0.1-0.049 0.15-0.072 0.064 0.063 0.11-0.017 0.17-0.0081-0.0055 0.013-0.011 0.025-0.02 0.046 0.052-0.01 0.099-0.012 0.14-0.029l0.9-0.39c0.17-0.071 0.33-0.14 0.5-0.21 0.46-0.18 0.92-0.35 1.4-0.53 0.13-0.054 0.28-0.081 0.39-0.18-0.0052-0.0083-0.011-0.017-0.018-0.028 0.04-0.012 0.078-0.023 0.11-0.034 0.0054-0.0029 0.011-0.0058 0.016-0.0087 0.064-0.025 0.13-0.049 0.19-0.074-5.6e-4 -0.0054-1e-3 -0.011-0.0016-0.016-0.018-0.0039-0.036-0.012-0.053-0.014zm-0.27 0.4c-0.11 0.031-0.22 0.061-0.33 0.092-0.0096 0.0028-0.017 0.013-0.026 0.019-0.013 0.011-0.025 0.027-0.041 0.032-0.49 0.15-0.97 0.33-1.4 0.52-0.39 0.15-0.78 0.31-1.2 0.47-0.11 0.044-0.21 0.093-0.32 0.14 0.018 0.033 0.032 0.061 0.044 0.083 1.1-0.42 2.2-0.85 3.3-1.2 0.0032-0.043 0.0063-0.085 0.011-0.14zm-1.7 3.1c-0.012-0.18-0.023-0.36-0.035-0.53-0.027-0.39-0.031-0.79-0.016-1.2 0.0063-0.17 0.018-0.33 0.026-0.5 0.0013-0.029 0.012-0.04 0.039-0.046 0.033-0.0074 0.064-0.021 0.1-0.033-0.0011 0.024-0.0021 0.044-3e-3 0.063 0.0024 4.5e-4 0.0046 9.4e-4 7e-3 0.0013 0.0058-0.026 0.011-0.052 0.017-0.078 5e-3 6e-4 0.0099 0.0011 0.015 0.0017 0 0.044 0.0023 0.088-4.6e-4 0.13-0.0066 0.11-0.02 0.21-0.022 0.32-0.0058 0.22-0.0078 0.45-0.0093 0.67-7.5e-4 0.12 6.7e-4 0.24 5e-3 0.36 0.0036 0.097 0.013 0.2 0.019 0.29 0.0088 0.14 0.017 0.27 0.025 0.41 7e-3 0.11 0.014 0.22 0.023 0.33 0.0015 0.019 0.01 0.038 0.016 0.056 6.6e-4 0.0023 0.0041 0.0051 0.0036 0.0062-0.052 0.11-0.059 0.23-0.13 0.33-0.05 0.065-0.11 0.13-0.19 0.16-0.12 0.047-0.25 0.1-0.37 0.14-0.18 0.054-0.44-0.048-0.49-0.26-0.031-0.12 0.01-0.23 0.08-0.34 0.13-0.2 0.33-0.29 0.56-0.3 0.11-0.0084 0.21-0.036 0.33 0.0095zm0.069-1.2c0.0041 7.7e-5 0.0081 2.2e-4 0.012 3e-4 0.011-0.32 0.022-0.64 0.034-0.96-0.0044-2.2e-4 -9e-3 -3e-4 -0.013-4.5e-4 -0.011 0.32-0.022 0.64-0.032 0.96zm0.02 0.55c0.0036 4.5e-4 0.0073 1e-3 0.011 0.0015-5e-3 -0.17-0.0099-0.34-0.015-0.52-0.0035 7.7e-5 -0.0069 2.2e-4 -0.01 3e-4 0.0049 0.17 0.0097 0.34 0.014 0.52zm1.8-2.7c-0.0055 0.0028-0.011 0.0057-0.016 0.0084-0.013 0.087-0.032 0.17-0.036 0.26-0.017 0.3-0.037 0.6-0.039 0.9-0.0017 0.33 0.015 0.65 0.026 0.98 0.0048 0.14 0.017 0.27 0.026 0.42-0.11-0.04-0.21-0.015-0.32-7e-3 -0.23 0.018-0.43 0.099-0.57 0.3-0.065 0.095-0.11 0.2-0.089 0.31 0.033 0.2 0.23 0.32 0.44 0.3 0.093-0.0097 0.19-0.043 0.27-0.079 0.11-0.044 0.22-0.079 0.3-0.18 0.071-0.083 0.11-0.18 0.14-0.28 0.0095-0.031 0.023-0.062 0.025-0.093 0.0015-0.027-0.015-0.054-0.017-0.082-0.016-0.21-0.032-0.43-0.046-0.64-0.0027-0.042 0.0042-0.085 0.0019-0.13-0.0052-0.093-0.016-0.19-0.02-0.28-0.0042-0.099-5e-3 -0.2-0.0043-0.3 0.0016-0.23 0.0023-0.47 0.0085-0.7 4e-3 -0.14 0.015-0.29 0.028-0.44 0.0068-0.075 0.025-0.15 0.039-0.23-0.046-0.012-0.1-0.026-0.16-0.041zm0.095 0.16c0.0028 8.5e-4 0.0056 0.0016 0.0084 0.0025l-0.019 0.19c-0.0036-3e-4 -0.0071-6.7e-4 -0.011-1e-3 0.0071-0.064 0.014-0.13 0.021-0.19zm-0.032 0.23c0.0047 7.7e-5 0.0094 3e-4 0.014 3.7e-4 -0.012 0.32-0.024 0.64-0.035 0.96-3e-3 -7.7e-5 -0.0061-1.5e-4 -0.0092-3e-4 0.01-0.32 0.02-0.64 0.031-0.96zm-0.014 1.1c0.0047 0.14 0.0095 0.29 0.014 0.43-0.0047 0-0.0095 7.7e-5 -0.014 1.5e-4zm-3.7 2.7c-0.0044-0.076-0.0069-0.15-0.013-0.22-0.041-0.47-0.059-0.94-0.042-1.4 0.011-0.3 0.039-0.61 0.063-0.91 6e-3 -0.076 0.016-0.078 0.09-0.059 0.032 0.0085 0.063 0.018 0.094 0.028 0.0028 8.5e-4 0.0052 0.0034-3.8e-4 -3.7e-4 -0.013 0.082-0.032 0.16-0.038 0.24-0.014 0.19-0.026 0.37-0.031 0.56-0.0053 0.2-0.0015 0.4-0.0015 0.6 0 0.081-0.0018 0.16 0.0013 0.24 0.0041 0.1 0.013 0.21 0.019 0.31 0.0097 0.18 0.017 0.35 0.029 0.53 0.0082 0.12 0.023 0.24 0.035 0.36 4.6e-4 0.0048 0.0041 0.01 0.0028 0.014-0.014 0.047-0.032 0.094-0.044 0.14-0.022 0.084-0.057 0.16-0.12 0.22-0.16 0.16-0.37 0.23-0.58 0.26-0.19 0.027-0.39-0.095-0.43-0.29-0.023-0.12 0.021-0.22 0.088-0.32 0.13-0.19 0.32-0.28 0.55-0.3 0.11-9e-3 0.22-0.038 0.33 0.0042zm0.069-1.3c0.0034 7.7e-5 0.0068 2.2e-4 0.01 3e-4 0.012-0.32 0.023-0.64 0.035-0.97-0.0047-2.2e-4 -0.0094-3e-4 -0.014-4.5e-4 -0.01 0.32-0.021 0.64-0.031 0.97zm0.023 0.21c-0.0057-7.7e-5 -0.011-2.2e-4 -0.017-3e-4 0.0047 0.11 0.0095 0.23 0.014 0.34 9.4e-4 -7.7e-5 0.0018-3e-4 0.0027-3.7e-4v-0.34z" />
</svg>