<?xml version="1.0" standalone="no"?>
<!DOCTYPE svg PUBLIC "-//W3C//DTD SVG 20010904//EN"
 "http://www.w3.org/TR/2001/REC-SVG-20010904/DTD/svg10.dtd">
<svg version="1.0" xmlns="http://www.w3.org/2000/svg"
 width="700.000000pt" height="700.000000pt" viewBox="0 0 700.000000 700.000000"
 preserveAspectRatio="xMidYMid meet">
<metadata>
Created by potrace 1.14, written by Peter Selinger 2001-2017
</metadata>
<g transform="translate(0.000000,700.000000) scale(0.100000,-0.100000)"
fill="#000000" stroke="none">
<path d="M4989 5481 c-19 -7 -79 -24 -134 -38 -55 -14 -206 -67 -335 -118
-129 -52 -354 -135 -500 -185 -493 -169 -936 -351 -1480 -607 -166 -78 -170
-81 -164 -98 11 -28 49 -27 110 1 34 17 78 29 104 29 25 1 57 5 73 9 23 7 26
6 21 -9 -6 -13 -3 -16 12 -12 10 3 32 8 49 12 27 6 156 58 265 108 250 113
692 295 990 409 58 22 245 94 415 160 171 65 335 128 365 140 131 48 206 90
195 108 -4 6 45 30 62 30 2 0 1 -12 -2 -27 -48 -279 -54 -1070 -12 -1702 2
-24 1 -24 -98 -26 -229 -5 -357 -48 -459 -155 -167 -174 -147 -378 43 -463 97
-43 234 -20 428 74 99 47 143 97 194 216 33 79 38 114 27 208 -4 28 -9 93 -13
145 -3 52 -8 117 -11 143 -19 207 -26 1030 -10 1257 12 173 13 180 26 243 6
32 9 62 5 65 -3 4 -25 12 -48 18 l-42 11 40 18 c22 9 50 21 63 26 12 5 22 13
22 19 0 15 -160 8 -201 -9z m128 -243 c-3 -8 -6 -5 -6 6 -1 11 2 17 5 13 3 -3
4 -12 1 -19z m-9 -102 c-1 -19 -5 -33 -8 -31 -7 4 -1 65 6 65 3 0 4 -15 2 -34z
m-1 -61 c0 -8 -4 -12 -9 -9 -5 3 -6 10 -3 15 9 13 12 11 12 -6z m-10 -47 c-3
-8 -6 -5 -6 6 -1 11 2 17 5 13 3 -3 4 -12 1 -19z m5 -70 c-5 -95 -9 -104 -11
-25 0 42 2 77 7 77 4 0 6 -24 4 -52z m-5 -130 c-3 -8 -6 -5 -6 6 -1 11 2 17 5
13 3 -3 4 -12 1 -19z m-10 -170 c-2 -13 -4 -3 -4 22 0 25 2 35 4 23 2 -13 2
-33 0 -45z m0 -80 c-3 -8 -6 -5 -6 6 -1 11 2 17 5 13 3 -3 4 -12 1 -19z m10
-440 c-2 -13 -4 -5 -4 17 -1 22 1 32 4 23 2 -10 2 -28 0 -40z"/>
<path d="M4845 5189 c-55 -16 -112 -38 -126 -48 -14 -10 -83 -37 -155 -60
-154 -50 -369 -124 -554 -193 -269 -100 -1058 -416 -1210 -485 -30 -14 -72
-32 -92 -40 -41 -16 -45 -27 -23 -57 16 -21 -40 -40 595 204 173 67 331 127
350 134 19 7 136 52 260 99 267 101 565 208 859 309 l213 73 4 48 c2 33 0 47
-9 46 -7 -1 -57 -14 -112 -30z"/>
<path d="M3860 4660 c-1 -19 -3 -21 -8 -9 -6 15 -12 15 -54 2 -47 -13 -48 -14
-49 -56 0 -23 -2 -58 -4 -77 -17 -203 -23 -738 -11 -921 4 -52 9 -128 11 -169
6 -118 16 -271 20 -313 4 -35 3 -37 -20 -31 -55 14 -230 2 -322 -22 -116 -30
-216 -102 -278 -199 -101 -158 -66 -309 90 -386 95 -46 164 -40 350 31 147 57
201 93 245 166 31 50 81 205 75 234 -5 26 -11 101 -20 260 -3 52 -7 118 -10
145 -16 186 -20 336 -19 675 0 327 8 578 19 640 1 8 -1 24 -6 35 -7 18 -8 18
-9 -5z m-10 -60 c0 -5 -5 -10 -11 -10 -5 0 -7 5 -4 10 3 6 8 10 11 10 2 0 4
-4 4 -10z m-5 -89 c3 -5 2 -12 -3 -15 -5 -3 -9 1 -9 9 0 17 3 19 12 6z m-8
-123 c-2 -18 -4 -4 -4 32 0 36 2 50 4 33 2 -18 2 -48 0 -65z m-4 -109 c-5 -5
-6 11 -3 34 4 41 5 41 8 8 2 -18 0 -37 -5 -42z m3 -39 c0 -12 -4 -16 -9 -11
-5 5 -6 14 -3 20 10 15 12 14 12 -9z m4 -34 c0 -3 -4 -8 -10 -11 -5 -3 -10 -1
-10 4 0 6 5 11 10 11 6 0 10 -2 10 -4z m-13 -133 c-2 -21 -4 -4 -4 37 0 41 2
58 4 38 2 -21 2 -55 0 -75z m0 -75 c-3 -7 -5 -2 -5 12 0 14 2 19 5 13 2 -7 2
-19 0 -25z m-2 -27 c3 -5 2 -12 -3 -15 -5 -3 -9 1 -9 9 0 17 3 19 12 6z m2
-168 c-2 -21 -4 -4 -4 37 0 41 2 58 4 38 2 -21 2 -55 0 -75z m0 -85 c-3 -8 -6
-5 -6 6 -1 11 2 17 5 13 3 -3 4 -12 1 -19z m10 -140 c-3 -8 -6 -5 -6 6 -1 11
2 17 5 13 3 -3 4 -12 1 -19z"/>
<path d="M2521 4336 c-11 -13 -17 -55 -27 -200 -3 -50 -8 -104 -10 -121 -25
-193 -25 -1055 1 -1225 2 -14 6 -78 10 -142 l7 -117 -34 10 c-53 16 -263 -6
-349 -36 -132 -47 -260 -179 -284 -295 -36 -167 94 -314 270 -305 198 9 411
120 476 247 27 53 66 181 63 204 -2 10 -6 52 -9 91 -3 40 -8 81 -10 91 -2 10
-6 81 -10 157 -4 77 -9 158 -10 180 -25 301 -24 904 0 1235 5 69 13 124 24
173 5 20 6 37 2 37 -3 0 -27 7 -53 14 -37 12 -49 12 -57 2z m56 -363 c-2 -21
-4 -4 -4 37 0 41 2 58 4 38 2 -21 2 -55 0 -75z m3 -52 c0 -6 -4 -12 -8 -15 -5
-3 -9 1 -9 9 0 8 4 15 9 15 4 0 8 -4 8 -9z m-13 -53 c-3 -8 -6 -5 -6 6 -1 11
2 17 5 13 3 -3 4 -12 1 -19z m0 -125 c-2 -21 -4 -4 -4 37 0 41 2 58 4 38 2
-21 2 -55 0 -75z m-10 -265 c-3 -8 -6 -5 -6 6 -1 11 2 17 5 13 3 -3 4 -12 1
-19z m0 -50 c-3 -7 -5 -2 -5 12 0 14 2 19 5 13 2 -7 2 -19 0 -25z m10 -173 c0
-8 -4 -12 -9 -9 -5 3 -6 10 -3 15 9 13 12 11 12 -6z m3 -35 c0 -5 -2 -10 -4
-10 -3 0 -8 5 -11 10 -3 6 -1 10 4 10 6 0 11 -4 11 -10z m0 -30 c0 -5 -2 -10
-4 -10 -3 0 -8 5 -11 10 -3 6 -1 10 4 10 6 0 11 -4 11 -10z"/>
<path d="M1578 3994 c-2 -1 -163 -5 -358 -9 -490 -9 -479 -8 -541 -39 -30 -15
-63 -33 -74 -41 -18 -14 -18 -16 -2 -33 20 -19 130 -21 647 -8 220 5 805 7
1015 4 78 -1 75 -3 75 56 0 33 -5 58 -12 63 -11 7 -743 14 -750 7z"/>
<path d="M5315 3990 l-90 -5 -3 -60 -3 -61 173 3 c207 2 584 2 688 -1 41 -1
96 4 123 10 26 7 50 12 52 12 8 1 119 16 128 18 4 1 16 2 27 3 11 0 20 5 20
10 0 8 -115 33 -245 52 -117 17 -682 29 -870 19z"/>
<path d="M2696 3970 c-25 -8 -32 -31 -28 -79 l4 -39 141 -2 c78 -1 201 -3 272
-5 72 -2 219 -6 328 -9 l197 -5 0 64 c0 55 -3 65 -17 65 -255 4 -703 11 -778
14 -55 2 -109 0 -119 -4z"/>
<path d="M4366 3973 c-1 -1 -97 -3 -214 -3 -123 -1 -212 -5 -213 -11 -1 -5 -1
-20 -1 -34 0 -14 0 -38 1 -54 l1 -29 288 3 c158 2 374 4 480 4 l192 1 0 43 c0
91 23 84 -272 83 -143 -1 -261 -2 -262 -3z"/>
<path d="M1367 3404 c-1 -1 -65 -5 -142 -9 -77 -4 -153 -8 -170 -10 -37 -5
-128 -13 -220 -21 -38 -3 -155 -7 -260 -9 -104 -2 -197 -4 -205 -4 -38 -2 17
-22 139 -51 l135 -31 325 1 c179 1 358 4 396 7 39 2 269 5 513 5 243 0 442 3
443 7 5 32 4 89 -3 103 -8 17 -40 18 -479 16 -258 -1 -471 -3 -472 -4z"/>
<path d="M2662 3378 c-13 -13 -17 -107 -4 -109 13 -2 666 -18 917 -23 l60 -1
1 63 1 62 -66 1 c-78 0 -358 6 -672 13 -166 4 -229 2 -237 -6z"/>
<path d="M4176 3383 c-1 -1 -48 -3 -105 -5 -56 -1 -105 -7 -108 -11 -5 -8 -7
-67 -4 -102 1 -8 99 -11 227 -6 16 1 23 11 32 52 17 71 16 77 -14 75 -14 0
-27 -2 -28 -3z"/>
<path d="M5719 3383 c-8 -1 -114 -4 -236 -5 -122 -2 -225 -6 -229 -11 -4 -4
-9 -31 -12 -61 l-4 -54 283 4 c472 6 809 16 1029 29 94 6 120 8 216 20 56 6
169 17 201 19 12 1 25 5 29 9 4 4 -69 7 -162 8 -93 0 -200 2 -239 3 -76 4
-306 17 -370 21 -147 11 -475 22 -506 18z"/>
<path d="M1637 2823 c-2 -1 -348 -9 -852 -19 -196 -3 -307 -10 -405 -25 -74
-11 -145 -22 -158 -23 -12 -2 -25 -6 -28 -9 -7 -7 6 -10 136 -39 103 -23 113
-23 595 -19 270 2 704 4 965 5 l476 1 -4 30 c-7 71 -13 92 -25 94 -14 2 -698
7 -700 4z"/>
<path d="M5597 2824 c-7 -5 -544 -17 -942 -20 -420 -4 -532 -6 -582 -13 -13
-1 -48 -99 -40 -108 10 -9 560 -4 1412 12 357 7 712 7 1037 0 334 -8 402 -5
380 17 -15 15 -206 77 -261 84 -25 3 -48 8 -51 9 -19 11 -239 19 -568 19 -211
1 -384 0 -385 0z"/>
<path d="M2689 2797 c-1 -1 -3 -28 -4 -59 l-2 -58 148 0 148 0 10 38 c22 84
35 77 -141 79 -87 1 -159 1 -159 0z"/>
<path d="M1377 2234 c-1 -1 -135 -5 -297 -8 -581 -14 -1064 -36 -1078 -51 -2
-2 -1 -8 2 -13 8 -13 63 -21 241 -38 38 -3 77 -7 86 -9 94 -18 615 -24 974
-10 110 4 242 8 294 10 51 2 97 7 102 12 4 4 16 32 27 61 l20 53 -185 -3
c-101 -2 -185 -4 -186 -4z"/>
<path d="M5487 2234 c-1 -1 -103 -4 -227 -8 -530 -16 -1795 -24 -2264 -14
l-238 6 -25 -55 c-13 -31 -22 -58 -19 -60 18 -19 809 -29 1386 -18 1608 30
1773 32 2070 24 116 -3 171 0 320 15 14 2 37 4 53 4 20 2 27 7 27 21 0 11 -4
23 -10 26 -12 7 -155 32 -232 39 -32 3 -84 9 -115 12 -47 6 -720 13 -726 8z"/>
<path d="M1648 1655 c-2 -2 -147 -6 -323 -9 -182 -3 -335 -11 -355 -17 -20 -6
-164 -13 -330 -16 -162 -3 -296 -6 -297 -7 -1 -1 2 -7 6 -14 10 -16 92 -38
174 -47 34 -4 69 -8 77 -10 100 -19 496 -23 1020 -9 383 9 612 10 810 0 85 -4
218 -9 295 -11 77 -2 275 -7 440 -11 482 -12 822 -10 1745 12 102 2 471 6 820
9 720 6 947 11 973 21 17 6 17 7 0 20 -30 23 -82 33 -203 39 -135 6 -241 17
-310 31 -14 2 -41 7 -60 10 -35 5 -422 5 -670 -1 -647 -16 -876 -19 -1515 -19
-666 -1 -1280 7 -1510 20 -99 5 -783 13 -787 9z"/>
</g>
</svg>
